{"title":"Ferocious.Planet.2010.DVDRiP.XviD.AC3-SiC","uid":6516830,"size":1437930889,"categoryP":"video","categoryS":"movies","magnet":"?xt=urn:btih:fccd7b2391eb2c9290c0b66a82278485315fd125&amp;dn=Ferocious.Planet.2010.DVDRiP.XviD.AC3-SiC&amp;tr=udp%3A%2F%2Ftracker.openbittorrent.com%3A80&amp;tr=udp%3A%2F%2Fopen.demonii.com%3A1337&amp;tr=udp%3A%2F%2Ftracker.coppersurfer.tk%3A6969&amp;tr=udp%3A%2F%2Fexodus.desync.com%3A6969","seeders":1,"leechers":1,"uploader":"SAFCukO09","files":4,"time":1309862482,"description":"Ferocious.Planet.2010.DVDRiP.XviD.AC3-SiC\n\n\n\nIMDB Link: &lt;a href=&quot;\nhttp://www.imdb.com/title/tt1637728/&quot; rel=&quot;nofollow&quot; target=&quot;_NEW&quot;&gt;\nhttp://www.imdb.com/title/tt1637728/&lt;/a&gt;\n\n\nDescription:\nA groundbreaking device is designed to glimpse alternate universes. But when the\nmachine malfunctions and transports a group of observers into a nightmarish\ndimension of alien terrors, the travelers must use ingenuity to survive.\n\n\nGeneral\nComplete name : Ferocious.Planet.2010.DVDRiP.XviD.AC3-SiC.avi\nFormat : AVI\nFormat/Info : Audio Video Interleave\nFile size : 1.33 GiB\nDuration : 1h 28mn\nOverall bit rate : 2 156 Kbps\n\nVideo\nID : 0\nFormat : MPEG-4 Visual\nFormat profile : Advanced Simple@L5\nFormat settings, BVOP : 1\nFormat settings, QPel : No\nFormat settings, GMC : No warppoints\nFormat settings, Matrix : Default (H.263)\nCodec ID : XVID\nCodec ID/Hint : XviD\nDuration : 1h 28mn\nBit rate : 1 699 Kbps\nWidth : 720 pixels\nHeight : 384 pixels\nDisplay aspect ratio : 1.875\nFrame rate : 29.970 fps\nColor space : YUV\nChroma subsampling : 4:2:0\nBit depth : 8 bits\nScan type : Progressive\nCompression mode : Lossy\nBits/(Pixel*Frame) : 0.205\nStream size : 1.05 GiB (79%)\nWriting library : XviD 1.2.1 (UTC 2008-12-04)\n\nAudio\nID : 1\nFormat : AC-3\nFormat/Info : Audio Coding 3\nMode extension : CM (complete main)\nCodec ID : 2000\nDuration : 1h 28mn\nBit rate mode : Constant\nBit rate : 448 Kbps\nChannel(s) : 6 channels\nChannel positions : Front: L C R, Side: L R, LFE\nSampling rate : 48.0 KHz\nBit depth : 16 bits\nCompression mode : Lossy\nStream size : 282 MiB (21%)\nAlignment : Aligned on interleaves\nInterleave, duration : 64 ms (1.92 video frames)\nInterleave, preload duration : 192 ms\n","torrent":{"xt":"urn:btih:fccd7b2391eb2c9290c0b66a82278485315fd125","amp;dn":"Ferocious.Planet.2010.DVDRiP.XviD.AC3-SiC","amp;tr":["udp%3A%2F%2Ftracker.openbittorrent.com%3A80","udp%3A%2F%2Fopen.demonii.com%3A1337","udp%3A%2F%2Ftracker.coppersurfer.tk%3A6969","udp%3A%2F%2Fexodus.desync.com%3A6969"],"infoHash":"fccd7b2391eb2c9290c0b66a82278485315fd125","infoHashBuffer":{"type":"Buffer","data":[252,205,123,35,145,235,44,146,144,192,182,106,130,39,132,133,49,95,209,37]},"announce":[],"urlList":[]}}